# xmcd CD database file
#
# Track frame offsets:
#	150
#	14858
#	31199
#	47109
#	67373
#	79651
#	95506
#	110933
#	130780
#	138621
#	158126
#	178612
#	198800
#
# Disc length: 2878 seconds
#
# Revision: 0
# Processed by: cddbd v1.5.2PL0 Copyright (c) Steve Scherf et al.
# Submitted via: CDex 1.51
#
DISCID=bc0b3c0d
DTITLE=Laura Fygi - Rendez-Vous
DYEAR=2007
DGENRE=Jazz
TTITLE0=Le Continental
TTITLE1=Le Temps Qui Passe
TTITLE2=Divine Biguine
TTITLE3=Pour Te Plaire
TTITLE4=C'est Ci Bon
TTITLE5=Nuages
TTITLE6=Tout Le Jour, Toute La Nuit
TTITLE7=Volons Vers La Lune
TTITLE8=Quelqu'un M'aimera
TTITLE9=Tu Viens Dans Ma Tête
TTITLE10=Autour De Minuit
TTITLE11=Caravane
TTITLE12=Dansez Maintenant
EXTD=YEAR: 2007
EXTT0=
EXTT1=
EXTT2=
EXTT3=
EXTT4=
EXTT5=
EXTT6=
EXTT7=
EXTT8=
EXTT9=
EXTT10=
EXTT11=
EXTT12=
PLAYORDER=
